{
  "title": "Mission Impossible 5 Rogue Nation HDTS XVID AC3-MRG",
  "uid": 12184173,
  "size": 1898536960,
  "categoryP": "video",
  "categoryS": "movies",
  "magnet": "?xt=urn:btih:2bf3b99a90d9d3e220a5c4b2e9617da15e6bc54b&amp;dn=Mission+Impossible+5+Rogue+Nation+HDTS+XVID+AC3-MRG&amp;tr=udp%3A%2F%2Ftracker.openbittorrent.com%3A80&amp;tr=udp%3A%2F%2Fopen.demonii.com%3A1337&amp;tr=udp%3A%2F%2Ftracker.coppersurfer.tk%3A6969&amp;tr=udp%3A%2F%2Fexodus.desync.com%3A6969",
  "seeders": 55,
  "leechers": 15,
  "uploader": "SaM",
  "files": 14,
  "time": 1438475767,
  "description": "Mission Impossible 5 Rogue Nation HDTS XVID AC3-MRG.avi\n\nAudio : CM8 THNX\nFormat : AVI\nFormat/Info : Audio Video Interleave\nFile size : 1.77 GiB\nDuration : 1h 59mn\nOverall bit rate : 2 117 Kbps\nWriting library : VirtualDub build 35491/release\nEncoder : MURD3R\n\nVideo\nID : 0\nFormat : MPEG-4 Visual\nFormat profile : Advanced Simple@L5\nFormat settings, BVOP : 2\nFormat settings, QPel : No\nFormat settings, GMC : No warppoints\nFormat settings, Matrix : Default (H.263)\nMuxing mode : Packed bitstream\nCodec ID : XVID\nCodec ID/Hint : XviD\nDuration : 1h 59mn\nBit rate : 1 849 Kbps\nWidth : 720 pixels\nHeight : 360 pixels\nDisplay aspect ratio : 2.000\nFrame rate : 29.970 fps\nColor space : YUV\nChroma subsampling : 4:2:0\nBit depth : 8 bits\nScan type : Progressive\nCompression mode : Lossy\nBits/(Pixel*Frame) : 0.238\nStream size : 1.54 GiB (87%)\nWriting library : XviD 67\n\nAudio\nID : 1\nFormat : AC-3\nFormat/Info : Audio Coding 3\nMode extension : CM (complete main)\nFormat settings, Endianness : Big\nCodec ID : 2000\nDuration : 1h 59mn\nBit rate mode : Constant\nBit rate : 256 Kbps\nChannel(s) : 2 channels\nChannel positions : Front: L R\nSampling rate : 48.0 KHz\nCompression mode : Lossy\nStream size : 219 MiB (12%)\nAlignment : Split accross interleaves\nInterleave, duration : 33 ms (1.00 video frame)\nInterleave, preload duratio : 500 ms\n &lt;a href=&quot;\nhttp://extraimago.com/image/Oo2&quot; rel=&quot;nofollow&quot; target=&quot;_NEW&quot;&gt;\nhttp://extraimago.com/image/Oo2&lt;/a&gt; &lt;a href=&quot;\nhttp://extraimago.com/image/Oow&quot; rel=&quot;nofollow&quot; target=&quot;_NEW&quot;&gt;\nhttp://extraimago.com/image/Oow&lt;/a&gt; &lt;a href=&quot;\nhttp://extraimago.com/image/Ooa&quot; rel=&quot;nofollow&quot; target=&quot;_NEW&quot;&gt;\nhttp://extraimago.com/image/Ooa&lt;/a&gt; &lt;a href=&quot;\nhttp://extraimago.com/image/Oo8&quot; rel=&quot;nofollow&quot; target=&quot;_NEW&quot;&gt;\nhttp://extraimago.com/image/Oo8&lt;/a&gt; &lt;a href=&quot;\nhttp://extraimago.com/image/Okf&quot; rel=&quot;nofollow&quot; target=&quot;_NEW&quot;&gt;\nhttp://extraimago.com/image/Okf&lt;/a&gt; &lt;a href=&quot;\nhttp://extraimago.com/image/OkW&quot; rel=&quot;nofollow&quot; target=&quot;_NEW&quot;&gt;\nhttp://extraimago.com/image/OkW&lt;/a&gt; &lt;a href=&quot;\nhttp://extraimago.com/image/OkA&quot; rel=&quot;nofollow&quot; target=&quot;_NEW&quot;&gt;\nhttp://extraimago.com/image/OkA&lt;/a&gt; &lt;a href=&quot;\nhttp://extraimago.com/image/Okv&quot; rel=&quot;nofollow&quot; target=&quot;_NEW&quot;&gt;\nhttp://extraimago.com/image/Okv&lt;/a&gt; &lt;a href=&quot;\nhttp://extraimago.com/image/Oku&quot; rel=&quot;nofollow&quot; target=&quot;_NEW&quot;&gt;\nhttp://extraimago.com/image/Oku&lt;/a&gt; &lt;a href=&quot;\nhttp://extraimago.com/image/OkV&quot; rel=&quot;nofollow&quot; target=&quot;_NEW&quot;&gt;\nhttp://extraimago.com/image/OkV&lt;/a&gt;",
  "parsed": {
    "xt": "urn:btih:2bf3b99a90d9d3e220a5c4b2e9617da15e6bc54b",
    "dn": "Mission Impossible 5 Rogue Nation HDTS XVID AC3-MRG",
    "tr": [
      "udp://exodus.desync.com:6969",
      "udp://open.demonii.com:1337",
      "udp://tracker.coppersurfer.tk:6969",
      "udp://tracker.openbittorrent.com:80"
    ],
    "infoHash": "2bf3b99a90d9d3e220a5c4b2e9617da15e6bc54b",
    "infoHashBuffer": {
      "type": "Buffer",
      "data": [
        43,
        243,
        185,
        154,
        144,
        217,
        211,
        226,
        32,
        165,
        196,
        178,
        233,
        97,
        125,
        161,
        94,
        107,
        197,
        75
      ]
    },
    "name": "Mission Impossible 5 Rogue Nation HDTS XVID AC3-MRG",
    "announce": [
      "udp://exodus.desync.com:6969",
      "udp://open.demonii.com:1337",
      "udp://tracker.coppersurfer.tk:6969",
      "udp://tracker.openbittorrent.com:80"
    ],
    "urlList": []
  },
  "previous": 4,
  "peers": 9,
  "last_updated": "2016-12-26T20:01:49.731Z"
}